<?xml version="1.0" encoding="UTF-8" standalone="no"?>
<!-- Created with Inkscape (http://www.inkscape.org/) -->

<svg
   width="200mm"
   height="200mm"
   viewBox="0 0 200 200"
   version="1.1"
   id="svg551"
   style="background-color:#00234b;"
   xmlnsXlink="http://www.w3.org/1999/xlink"
   xmlns="http://www.w3.org/2000/svg"
   xmlns:svg="http://www.w3.org/2000/svg">
  <defs
     id="defs548">
    <clipPath
       clipPathUnits="userSpaceOnUse"
       id="clipPath3527">
      <use
         x="0"
         y="0"
         xlinkHref="#g3523"
         id="use3529" />
    </clipPath>
  </defs>
  <g
     id="layer1">
    <g
       id="g3525"
       clip-path="url(#clipPath3527)"
       transform="matrix(0.82894737,0,0,1,22,7.8064516)"
       style="display:inline;fill:none">
      <g
         id="g3523"
         style="fill:none">
        <rect
           style="fill:none;fill-opacity:1;stroke-width:0.264583"
           id="rect555"
           width="242.70969"
           height="219.99998"
           x="-26.967741"
           y="-7.4516129" />
      </g>
    </g>
    <path
       id="rect3585"
       style="fill:#ffffff;fill-opacity:1;stroke-width:0.353792"
       d="M 9.9999064,9.9999064 V 189.99977 H 189.99977 V 9.9999064 Z M 31.000175,60.999894 h 35.130672 c 7.062246,0 12.43126,0.720868 16.106511,2.162142 3.67525,1.405243 6.611854,3.909533 8.809798,7.51272 2.197944,3.603186 3.296956,7.584635 3.296956,11.94449 0,5.620971 -1.81988,10.359227 -5.459098,14.214637 -3.639219,3.855407 -9.259813,6.305527 -16.862537,7.350457 2.774454,1.33318 4.882371,2.64835 6.323645,3.94549 3.062709,2.81049 5.962856,6.32368 8.701278,10.53941 l 13.78262,21.56509 H 87.642196 L 77.157048,123.74955 c -3.062709,-4.7562 -5.585228,-8.39545 -7.56698,-10.91768 -1.981753,-2.52223 -3.765176,-4.28794 -5.350578,-5.29683 -1.54937,-1.00889 -3.134865,-1.71153 -4.756299,-2.10788 -1.189052,-0.25223 -3.13498,-0.37827 -5.83737,-0.37827 H 41.485323 v 35.18544 H 31.000175 Z m 79.990465,0 h 57.29108 v 9.350334 h -46.80541 v 24.267769 h 43.83246 v 9.296073 H 121.47631 V 130.884 h 48.64302 v 9.35033 h -59.12869 z m -69.505317,8.756055 v 26.21287 h 22.538159 c 4.792238,0 8.539301,-0.486482 11.241691,-1.459342 2.70239,-1.008893 4.756139,-2.59387 6.161381,-4.755782 1.405243,-2.197944 2.107882,-4.576186 2.107882,-7.134449 0,-3.747314 -1.369338,-6.828194 -4.10776,-9.242329 -2.70239,-2.414136 -6.990103,-3.620968 -12.863297,-3.620968 z" />
    <path
       id="rect3639"
       style="fill:#ffffff;fill-opacity:1;stroke-width:0.252678"
       d="m 50.000049,-14.903483 v 75.903377 h 16.130798 c 7.062246,0 12.43126,0.720868 16.106511,2.162142 3.67525,1.405243 6.611854,3.909533 8.809798,7.51272 2.197944,3.603186 3.296956,7.584635 3.296956,11.94449 0,5.620971 -1.81988,10.359227 -5.459098,14.214637 -3.639219,3.855407 -9.259813,6.305527 -16.862537,7.350457 2.774454,1.33318 4.882371,2.64835 6.323645,3.94549 3.062709,2.81049 5.962856,6.32368 8.701278,10.53941 l 13.78262,21.56509 H 87.642196 L 77.157048,123.74955 c -3.062709,-4.7562 -5.585228,-8.39545 -7.56698,-10.91768 -1.981753,-2.52223 -3.765176,-4.28794 -5.350578,-5.29683 -1.54937,-1.00889 -3.134865,-1.71153 -4.756299,-2.10788 -1.189052,-0.25223 -3.13498,-0.37827 -5.83737,-0.37827 H 50.000049 V 229.2258 H 150.00015 V 140.23433 H 110.99064 V 60.999894 h 39.00951 v -75.903377 z m 0,84.659432 v 26.21287 h 14.023433 c 4.792238,0 8.539301,-0.486482 11.241691,-1.459342 2.70239,-1.008893 4.756139,-2.59387 6.161381,-4.755782 1.405243,-2.197944 2.107882,-4.576186 2.107882,-7.134449 0,-3.747314 -1.369338,-6.828194 -4.10776,-9.242329 -2.70239,-2.414136 -6.990103,-3.620968 -12.863297,-3.620968 z m 71.476261,0.594279 v 24.267769 h 28.52384 V 70.350228 Z m 0,33.563842 V 130.884 h 28.52384 v -26.96993 z" />
  </g>
</svg>
