<?xml version="1.0" encoding="UTF-8" standalone="no"?>
<!-- Created with Inkscape (http://www.inkscape.org/) -->

<svg
   width="200mm"
   height="175mm"
   viewBox="0 0 200 175"
   version="1.1"
   id="svg5"
   xmlns="http://www.w3.org/2000/svg"
   xmlnsSvg="http://www.w3.org/2000/svg">
  <defs
     id="defs2" />
  <g
     id="layer1">
    <path
       style="fill:#000000;stroke-width0.264583"
       id="rect167"
       x="-2.220446e-16"
       y="0"
       width="200"
       height="35"
       d="M 13.758333,0 H 186.24167 A 13.758333,13.758333 45 0 1 200,13.758333 v 7.483334 A 13.758333,13.758333 135 0 1 186.24167,35 H 13.758333 A 13.758333,13.758333 45 0 1 0,21.241667 V 13.758333 A 13.758333,13.758333 135 0 1 13.758333,0 Z" />
    <path
       style="fill:#000000;stroke-width0.264583"
       id="rect167-5"
       x="0"
       y="70"
       width="200"
       height="35"
       d="M 13.758333,70 H 186.24167 A 13.758333,13.758333 45 0 1 200,83.758333 v 7.483334 A 13.758333,13.758333 135 0 1 186.24167,105 H 13.758333 A 13.758333,13.758333 45 0 1 0,91.241667 V 83.758333 A 13.758333,13.758333 
135 0 1 13.758333,70 Z" />
    <path
       style="fill:#000000;stroke-width0.264583"
       id="rect167-5-3"
       x="1.7763568e-15"
       y="140"
       width="200"
       height="35"
       d="M 13.758333,140 H 186.24167 A 13.758333,13.758333 45 0 1 200,153.75833 v 7.48334 A 13.758333,13.758333 135 0 1 186.24167,175 H 13.758333 A 13.758333,13.758333 45 0 1 0,161.24167 v -7.48334 A 13.758333,13.758333 135 0 1 13.758333,140 Z" />
  </g>
</svg>